<svg width="113" height="173" viewBox="0 0 113 173" fill="none" xmlns="http://www.w3.org/2000/svg">
<path d="M79.0782 21.8429C78.9379 21.8709 78.7946 21.8709 78.6543 21.8429C78.2375 21.7123 77.8817 21.3925 77.6647 20.9537C77.4478 20.5148 77.3874 19.9926 77.4968 19.5014C77.7101 18.8801 77.7948 18.2079 77.7438 17.5405C77.6927 16.873 77.5075 16.2294 77.2033 15.6629C76.0529 14.465 74.5468 13.8511 73.0135 13.9548C72.5811 13.9548 72.1664 13.7526 71.8606 13.3927C71.5549 13.0327 71.3831 12.5446 71.3831 12.0355C71.3831 11.5265 71.5549 11.0384 71.8606 10.6784C72.1664 10.3185 72.5811 10.1163 73.0135 10.1163C73.4699 10.1163 77.6435 10.1163 79.8444 13.2639C80.4795 14.2762 80.8935 15.4569 81.0499 16.7019C81.2062 17.9469 81.1002 19.2181 80.7411 20.4035C80.6475 20.8325 80.4309 21.2101 80.1278 21.4725C79.8247 21.7348 79.4539 21.8657 79.0782 21.8429ZM12.9042 44.5861C13.1182 44.5647 13.3267 44.4938 13.5175 44.3776C13.7083 44.2614 13.8778 44.102 14.0164 43.9086C14.1549 43.7153 14.2597 43.4917 14.3248 43.2506C14.3899 43.0096 14.4141 42.7558 14.3959 42.5037C14.3777 42.2517 14.3175 42.0063 14.2188 41.7817C14.12 41.557 13.9846 41.3575 13.8204 41.1944C13.6561 41.0313 13.4662 40.9079 13.2614 40.8313C13.0567 40.7546 12.8411 40.7262 12.627 40.7476C12.164 40.8584 11.6863 40.8525 11.2255 40.7301C10.7646 40.6077 10.331 40.3716 9.95331 40.0375C9.71562 39.5795 9.55725 39.0707 9.4873 38.5404C9.41735 38.0101 9.43721 37.4687 9.54573 36.9475C9.60864 36.4703 9.51647 35.9828 9.28759 35.5821C9.05871 35.1814 8.70995 34.897 8.31086 34.7856C7.91176 34.6742 7.49166 34.744 7.13433 34.9811C6.777 35.2181 6.5087 35.605 6.38294 36.0646C6.15455 37.1726 6.13546 38.326 6.32701 39.4435C6.51856 40.5611 6.91609 41.6156 7.49155 42.5325C8.06698 43.2577 8.7721 43.8233 9.55591 44.1884C10.3397 44.5535 11.1827 44.709 12.0238 44.6437L12.9042 44.5861ZM43.456 53.741C45.3842 53.4497 47.2123 52.5623 48.7545 51.1692C50.9593 52.7198 53.5877 53.208 56.0909 52.5318C58.302 52.0083 60.3888 50.9208 62.2045 49.3459C64.745 50.7512 67.5661 51.3025 70.3561 50.9389C73.9143 50.4542 77.2034 48.4705 79.6162 45.3538C79.8735 44.9441 79.9819 44.4308 79.9177 43.9269C79.8535 43.423 79.6219 42.9697 79.2738 42.6669C78.9258 42.364 78.4897 42.2363 78.0617 42.3119C77.6337 42.3875 77.2487 42.6602 76.9914 43.0699C75.0792 45.3801 72.5424 46.8326 69.8181 47.1771C67.3696 47.3688 64.9245 46.7505 62.7588 45.3922C62.437 45.1867 62.0658 45.1147 61.705 45.1879C61.3442 45.261 61.0148 45.4749 60.7699 45.7953C59.2579 47.3581 57.4064 48.3948 55.4225 48.7893C54.4294 49.0782 53.3925 49.088 52.3956 48.818C51.3987 48.5479 50.4697 48.0055 49.6838 47.2347C49.5034 47.0341 49.2864 46.8846 49.0495 46.7977C48.8125 46.7108 48.5618 46.6887 48.3165 46.7331C48.0712 46.7775 47.8378 46.8873 47.634 47.0541C47.4302 47.2208 47.2614 47.4401 47.1405 47.6953C46.0216 49.0347 44.5123 49.8236 42.918 49.9025C40.3422 50.4015 39.6574 48.463 39.5433 47.8681C39.4633 47.5001 39.2922 47.1683 39.0519 46.9149C38.8116 46.6614 38.5128 46.4976 38.1933 46.4441C37.8739 46.3907 37.5481 46.4501 37.2573 46.6147C36.9666 46.7794 36.7238 47.0419 36.5599 47.369C36.354 47.7735 36.0625 48.1081 35.7138 48.3402C35.3652 48.5723 34.9714 48.694 34.5709 48.6933C34.1307 48.6933 33.8536 47.1195 33.8699 46.1023C33.8699 45.5933 33.6981 45.1052 33.3924 44.7452C33.0866 44.3853 32.6719 44.1831 32.2396 44.1831C31.8072 44.1831 31.3925 44.3853 31.0868 44.7452C30.781 45.1052 30.6093 45.5933 30.6093 46.1023C30.6093 48.3863 31.2614 52.3399 34.2937 52.6278C35.4489 52.7265 36.5984 52.3612 37.5543 51.5914C38.125 52.3209 38.8261 52.8922 39.607 53.2639C40.388 53.6356 41.2293 53.7986 42.0703 53.741C42.5311 53.7944 42.9952 53.7944 43.456 53.741ZM55.9768 56.6774V50.9197C55.9768 50.4107 55.805 49.9225 55.4993 49.5626C55.1935 49.2026 54.7789 49.0004 54.3465 49.0004C53.9141 49.0004 53.4994 49.2026 53.1937 49.5626C52.8879 49.9225 52.7162 50.4107 52.7162 50.9197V56.6774C52.7162 57.1865 52.8879 57.6746 53.1937 58.0346C53.4994 58.3945 53.9141 58.5967 54.3465 58.5967C54.7789 58.5967 55.1935 58.3945 55.4993 58.0346C55.805 57.6746 55.9768 57.1865 55.9768 56.6774ZM85.8765 49.0004C88.9647 47.7351 91.6084 45.298 93.3923 42.0719C93.5365 41.8564 93.6398 41.607 93.6952 41.3405C93.7507 41.074 93.7569 40.7966 93.7135 40.527C93.6702 40.2574 93.5782 40.0019 93.4439 39.7777C93.3095 39.5535 93.1359 39.3658 92.9347 39.2273C92.7335 39.0888 92.5094 39.0027 92.2776 38.9748C92.0457 38.9468 91.8115 38.9778 91.5906 39.0655C91.3698 39.1532 91.1675 39.2956 90.9974 39.4831C90.8272 39.6707 90.6933 39.899 90.6044 40.1526C89.1989 42.6417 87.1364 44.5167 84.7353 45.4882C83.4577 46.017 82.102 46.2336 80.7509 46.1247C79.3998 46.0158 78.0817 45.5837 76.8773 44.8548C76.5334 44.7187 76.1608 44.7214 75.8184 44.8626C75.476 45.0039 75.1834 45.2755 74.9869 45.6346C74.7905 45.9936 74.7013 46.4196 74.7337 46.845C74.766 47.2704 74.918 47.6709 75.1655 47.9832C77.0965 49.1775 79.2445 49.8031 81.4258 49.8065C82.9419 49.8443 84.4509 49.5515 85.8765 48.9428V49.0004ZM96.3594 41.4194C97.6794 40.8226 98.8655 39.8773 99.8265 38.6561C100.787 37.435 101.498 35.9706 101.902 34.3757C101.998 33.8667 101.917 33.334 101.679 32.8949C101.44 32.4558 101.063 32.1462 100.631 32.0342C100.198 31.9222 99.7459 32.017 99.3729 32.2978C98.9999 32.5785 98.737 33.0222 98.6418 33.5312C98.3522 34.5424 97.8716 35.4633 97.2363 36.2245C96.601 36.9857 95.8274 37.5676 94.9736 37.9263C92.8139 38.7366 90.5168 38.9015 88.2894 38.4061C87.8658 38.3103 87.4271 38.4161 87.0696 38.7003C86.7121 38.9845 86.4648 39.4239 86.3819 39.9223C86.3349 40.1789 86.3331 40.4441 86.3766 40.7015C86.42 40.9589 86.5079 41.2031 86.6347 41.419C86.7616 41.6348 86.9246 41.8178 87.1139 41.9565C87.3032 42.0952 87.5146 42.1867 87.7351 42.2254C88.8824 42.4542 90.044 42.5698 91.2076 42.5709C92.974 42.6098 94.7281 42.2177 96.3594 41.4194ZM112.777 26.6603C113.608 20.5954 111.961 17.2751 110.429 15.567C109.635 14.6595 108.677 13.9757 107.627 13.5668C106.576 13.1579 105.461 13.0347 104.364 13.2063C104.142 13.243 103.929 13.3331 103.738 13.471C103.547 13.609 103.382 13.7918 103.254 14.0081C103.126 14.2243 103.037 14.4694 102.993 14.728C102.948 14.9866 102.95 15.2532 102.997 15.511C103.044 15.7689 103.136 16.0126 103.267 16.2268C103.398 16.441 103.564 16.6212 103.757 16.7561C103.949 16.891 104.164 16.9778 104.386 17.0109C104.608 17.0441 104.834 17.023 105.049 16.9488C105.625 16.9153 106.2 17.0224 106.739 17.2636C107.277 17.5047 107.768 17.8746 108.179 18.3499C109.565 19.8853 110.038 22.5531 109.565 26.0269C108.342 34.8555 99.783 34.3565 99.4896 34.3181C99.2755 34.3017 99.0608 34.3351 98.8576 34.4165C98.6545 34.4978 98.467 34.6254 98.3057 34.792C98.1445 34.9587 98.0127 35.1611 97.918 35.3876C97.8232 35.6142 97.7672 35.8606 97.7533 36.1126C97.7394 36.3647 97.7678 36.6175 97.8369 36.8566C97.9059 37.0957 98.0143 37.3165 98.1559 37.5063C98.2974 37.6961 98.4693 37.8512 98.6618 37.9628C98.8543 38.0744 99.0636 38.1402 99.2776 38.1566H100.125C104.348 38.195 111.489 35.8535 112.76 26.6603H112.777ZM106.255 17.9277C106.293 16.1557 105.809 14.4229 104.884 13.0236C103.96 11.6242 102.653 10.6445 101.185 10.2506C99.4503 9.76852 97.6267 10.0199 96.0333 10.9608C94.8758 8.46573 92.2836 5.24138 86.5776 4.60802C80.8715 3.97467 78.1326 5.56765 76.6653 7.00709C76.3367 7.33199 76.1302 7.7963 76.0905 8.29932C76.0508 8.80233 76.1812 9.30348 76.4534 9.69405C76.5903 9.88839 76.7583 10.049 76.948 10.1668C77.1377 10.2845 77.3453 10.3571 77.5588 10.3803C77.7723 10.4034 77.9876 10.3768 78.1924 10.3019C78.3972 10.2269 78.5874 10.1052 78.7521 9.94355C79.551 9.15666 81.6051 7.88995 86.2678 8.40815C92.789 9.15666 93.6857 14.07 93.7183 14.1659C93.7736 14.536 93.9199 14.8788 94.1391 15.1519C94.3583 15.425 94.6408 15.6163 94.9516 15.7021C95.2623 15.788 95.5876 15.7645 95.8871 15.6347C96.1867 15.505 96.4472 15.2745 96.6366 14.972C97.1314 14.3796 97.7551 13.9588 98.4394 13.7557C99.1238 13.5526 99.8424 13.575 100.517 13.8205C101.254 14.0552 101.901 14.5785 102.351 15.3042C102.802 16.0299 103.029 16.9146 102.995 17.8125C102.995 18.3215 103.166 18.8097 103.472 19.1696C103.778 19.5296 104.193 19.7318 104.625 19.7318C105.041 19.7326 105.442 19.5463 105.745 19.2109C106.048 18.8755 106.23 18.4165 106.255 17.9277ZM78.4261 10.1931C78.8062 9.97321 79.0987 9.58788 79.2417 9.11862C79.3847 8.64935 79.367 8.13299 79.1923 7.67883C79.0782 7.41014 76.3719 1.03821 70.6169 1.03821C64.8619 1.03821 63.2153 4.3969 63.0197 4.87672C62.8524 5.2933 62.8179 5.76686 62.9227 6.21087C63.0275 6.65487 63.2644 7.03968 63.5903 7.29498C63.9543 7.56132 64.3927 7.64822 64.8107 7.53687C65.2287 7.42552 65.5927 7.12488 65.8238 6.70001C65.8238 6.70001 66.9324 4.78075 70.6169 4.78075C71.8048 4.89058 72.9484 5.36004 73.9368 6.14357C74.9251 6.9271 75.7246 7.99809 76.2578 9.25262C76.3517 9.47977 76.4827 9.68287 76.6434 9.85025C76.8042 10.0176 76.9914 10.146 77.1943 10.228C77.3973 10.3101 77.612 10.3441 77.8262 10.3282C78.0404 10.3123 78.2497 10.2468 78.4424 10.1355L78.4261 10.1931ZM56.7919 6.54647C57.0972 5.85931 57.5722 5.29714 58.1542 4.93399C58.7363 4.57083 59.3981 4.42373 60.0525 4.51206C62.5958 4.51206 63.3131 5.83635 63.3947 5.97069C63.59 6.41443 63.9246 6.75098 64.3274 6.90878C64.7302 7.06659 65.1694 7.0332 65.5516 6.81571C65.9339 6.59823 66.2289 6.21381 66.3741 5.74419C66.5194 5.27456 66.5032 4.75678 66.3292 4.30094C66.1825 3.93628 64.6989 0.673547 60.0525 0.673547C58.7198 0.569683 57.393 0.959988 56.2584 1.78962C55.1238 2.61925 54.2385 3.84651 53.727 5.29895C53.6007 5.77008 53.6336 6.28037 53.8188 6.72366C54.0041 7.16694 54.3274 7.50906 54.7214 7.67883C54.894 7.7526 55.0759 7.79153 55.2594 7.79399C55.5926 7.79526 55.918 7.67638 56.192 7.45334C56.466 7.23031 56.6753 6.91382 56.7919 6.54647ZM56.2865 6.89194C56.6778 6.67554 56.98 6.28506 57.1268 5.80638C57.2735 5.3277 57.2528 4.8 57.0691 4.33933C56.4483 3.00021 55.5271 1.88752 54.4058 1.12263C53.2846 0.35774 52.0065 -0.0299662 50.7109 0.00180732C46.3091 0.00180732 44.8581 2.49684 44.7114 2.78473C44.5917 2.99913 44.5097 3.23961 44.4703 3.49195C44.4309 3.74429 44.4348 4.00338 44.482 4.25388C44.5291 4.50439 44.6184 4.74123 44.7446 4.9504C44.8708 5.15957 45.0314 5.33682 45.2168 5.47169C45.5808 5.73803 46.0192 5.82492 46.4372 5.71357C46.8552 5.60222 47.2192 5.30159 47.4503 4.87672C47.4503 4.87672 48.1839 3.84032 50.7109 3.84032C51.3957 3.79675 52.0775 3.97609 52.6814 4.35866C53.2854 4.74124 53.7881 5.31226 54.1345 6.00908C54.269 6.3321 54.4778 6.60413 54.7373 6.79417C54.9967 6.9842 55.2963 7.08458 55.6018 7.08386C55.8399 7.08624 56.0749 7.02037 56.2865 6.89194ZM48.135 8.21622C48.3479 8.14636 48.5465 8.02626 48.7188 7.86324C48.891 7.70021 49.0333 7.49765 49.137 7.26788C49.2407 7.03811 49.3036 6.78591 49.3219 6.52662C49.3403 6.26733 49.3136 6.00637 49.2436 5.75958C48.7183 4.06873 47.7418 2.62376 46.4604 1.64112C45.1789 0.658474 43.6615 0.191058 42.1355 0.308888C40.8307 0.199931 39.5245 0.49731 38.3483 1.17112C37.1721 1.84494 36.1673 2.87143 35.435 4.1474C35.3272 4.36645 35.2572 4.60845 35.2292 4.85944C35.2012 5.11044 35.2157 5.36548 35.2717 5.60988C35.3278 5.85428 35.4244 6.08321 35.5559 6.28347C35.6875 6.48374 35.8513 6.6514 36.0382 6.77678C36.2191 6.91165 36.4208 7.00325 36.6317 7.04635C36.8427 7.08944 37.0588 7.08318 37.2678 7.02793C37.4767 6.97268 37.6743 6.86952 37.8494 6.72434C38.0244 6.57916 38.1735 6.39481 38.288 6.18181C38.74 5.48119 39.3419 4.93436 40.0322 4.59717C40.7225 4.25998 41.4764 4.14451 42.217 4.26256C43.0299 4.1748 43.8457 4.38851 44.5502 4.87376C45.2548 5.35902 45.8127 6.09153 46.146 6.96871C46.2526 7.3535 46.4598 7.68877 46.738 7.92662C47.0161 8.16446 47.351 8.2927 47.6948 8.29299C47.8548 8.29484 48.0141 8.26898 48.1676 8.21622H48.135ZM38.3532 9.27181C38.7616 9.10609 39.0975 8.75631 39.287 8.2993C39.4765 7.84228 39.5042 7.31539 39.364 6.83436C38.8032 4.99218 37.7854 3.39073 36.4425 2.23751C35.0995 1.08428 33.4933 0.432448 31.832 0.366466C31.0179 0.309181 30.2025 0.450041 29.4368 0.780258C28.671 1.11047 27.9713 1.62296 27.3813 2.28572C26.3958 3.54676 25.8489 5.19765 25.8488 6.91113C25.8488 7.42015 26.0205 7.90832 26.3263 8.26825C26.632 8.62818 27.0467 8.83039 27.4791 8.83039C27.9115 8.83039 28.3261 8.62818 28.6319 8.26825C28.9376 7.90832 29.1094 7.42015 29.1094 6.91113C29.1408 6.38077 29.2807 5.8672 29.5169 5.41411C29.6637 5.10703 30.1365 4.18579 31.8972 4.18579C32.8764 4.24421 33.8196 4.63883 34.6105 5.32094C35.4014 6.00305 36.0054 6.94282 36.3479 8.0243C36.4591 8.39882 36.6662 8.72357 36.9406 8.95385C37.2151 9.18412 37.5434 9.30862 37.8804 9.3102C38.0441 9.3265 38.209 9.31355 38.3695 9.27181H38.3532ZM21.4469 11.9396C21.7078 10.788 22.6697 8.23542 23.9576 7.7556C24.8779 7.34117 25.8916 7.31405 26.8269 7.67883C27.0169 7.8031 27.226 7.88141 27.4421 7.90916C27.6581 7.93691 27.8767 7.91353 28.0849 7.8404C28.2931 7.76727 28.4869 7.64587 28.6547 7.48333C28.8225 7.32079 28.961 7.1204 29.0621 6.89392C29.1632 6.66745 29.2248 6.41948 29.2433 6.16458C29.2618 5.90968 29.2368 5.653 29.1698 5.40963C29.1028 5.16626 28.9952 4.94111 28.8532 4.74741C28.7112 4.55372 28.5378 4.3954 28.3431 4.28175C26.6441 3.42632 24.7321 3.36456 22.9957 4.10902C19.7351 5.35653 18.4635 10.385 18.3331 10.9416C18.2231 11.4301 18.2812 11.95 18.4949 12.3884C18.7086 12.8268 19.0605 13.1483 19.4743 13.2831C19.6147 13.3096 19.7578 13.3096 19.8982 13.2831C20.244 13.2815 20.5804 13.1504 20.8588 12.9089C21.1372 12.6674 21.3432 12.328 21.4469 11.9396ZM9.95331 22.7258C10.3421 22.5163 10.6454 22.1353 10.7979 21.6651C10.9504 21.1948 10.9398 20.6728 10.7685 20.2116C10.3402 19.0245 10.3033 17.692 10.6651 16.4746C11.0269 15.2572 11.7613 14.2424 12.7248 13.6285C16.4908 10.788 21.1535 13.6285 21.2513 13.6285C21.63 13.868 22.0738 13.9218 22.486 13.778C22.8982 13.6342 23.2455 13.3046 23.4522 12.8608C23.6557 12.415 23.7013 11.8926 23.5792 11.4073C23.457 10.9221 23.177 10.5132 22.8001 10.2698C22.5392 10.0971 16.393 6.23939 10.9641 10.2698C9.34032 11.377 8.12009 13.1499 7.53662 15.2494C6.95316 17.349 7.04739 19.6281 7.80131 21.651C7.93227 21.9842 8.14165 22.2661 8.4046 22.4634C8.66755 22.6607 8.97306 22.7651 9.28488 22.7642C9.50755 22.8059 9.73515 22.7929 9.95331 22.7258ZM5.79603 32.8979C5.96531 32.4319 5.97118 31.9061 5.81236 31.435C5.65354 30.964 5.34292 30.5861 4.94827 30.3836C4.05161 29.923 3.05712 29.021 3.31797 26.1805C3.34829 25.4192 3.51532 24.6741 3.80807 23.9943C4.10082 23.3145 4.51263 22.7155 5.01635 22.2367C5.52007 21.758 6.10428 21.4104 6.73044 21.2168C7.35661 21.0232 8.01052 20.988 8.64906 21.1136C8.86316 21.1439 9.08022 21.1242 9.28785 21.0557C9.49547 20.9872 9.68961 20.8712 9.85916 20.7143C10.0287 20.5575 10.1704 20.3629 10.276 20.1416C10.3817 19.9203 10.4493 19.6767 10.475 19.4247C10.5007 19.1726 10.484 18.9171 10.4258 18.6727C10.3676 18.4282 10.2691 18.1997 10.1358 18.0001C10.0026 17.8005 9.8373 17.6337 9.64933 17.5093C9.46137 17.3849 9.25443 17.3054 9.04034 17.2751C7.98532 17.1039 6.91173 17.188 5.88529 17.5223C4.85885 17.8566 3.90118 18.434 3.0709 19.2192C2.24063 20.0043 1.55523 20.9808 1.05668 22.0886C0.558125 23.1965 0.256913 24.4126 0.171484 25.6623C-0.167239 27.301 -0.000826365 29.0282 0.64108 30.536C1.28299 32.0438 2.35871 33.2345 3.67664 33.8959C3.88151 34.0039 4.10436 34.0563 4.32876 34.0494C4.63576 34.0361 4.93333 33.9209 5.18716 33.7172C5.44099 33.5135 5.64075 33.2294 5.76343 32.8979H5.79603ZM15.2518 25.9885C15.6686 25.8579 16.0244 25.5381 16.2414 25.0993C16.4583 24.6604 16.5187 24.1382 16.4093 23.647C16.3626 23.4795 16.3466 23.3021 16.3624 23.1267C16.3782 22.9513 16.4254 22.7819 16.5008 22.6295C16.5763 22.4772 16.6784 22.3454 16.8003 22.2429C16.9223 22.1404 17.0613 22.0695 17.2082 22.0349C17.5819 21.8437 17.8813 21.4946 18.0473 21.0564C18.2134 20.6183 18.234 20.1228 18.1051 19.6677C17.9762 19.2125 17.7072 18.8307 17.3511 18.5974C16.995 18.3642 16.5775 18.2964 16.1811 18.4075C15.0961 18.7788 14.178 19.6357 13.6233 20.7945C13.0687 21.9533 12.9217 23.3218 13.2139 24.6067C13.3063 25.0289 13.5181 25.4016 13.8145 25.6632C14.1108 25.9249 14.474 26.0599 14.8442 26.0461L15.2518 25.9885ZM9.02403 42.9548C9.40484 42.7861 9.7183 42.4559 9.90285 42.029C10.0874 41.6021 10.1297 41.1095 10.0214 40.6478C9.91318 40.186 9.66218 39.7887 9.31775 39.5337C8.97332 39.2787 8.56035 39.1846 8.15997 39.2698C7.44098 39.4153 6.70129 39.2827 6.05173 38.8917C5.40218 38.5007 4.87774 37.8724 4.557 37.101C4.10433 36.4902 3.83639 35.72 3.7951 34.9109C3.7538 34.1018 3.94147 33.2994 4.32876 32.6292C4.58957 32.2535 4.71985 31.7755 4.69338 31.2913C4.6669 30.8071 4.48565 30.3527 4.18608 30.0195C3.88652 29.6863 3.49087 29.499 3.07875 29.4954C2.66663 29.4917 2.26863 29.6719 1.96482 29.9998C1.08329 31.2832 0.58894 32.8751 0.559431 34.5252C0.529921 36.1753 0.966927 37.7903 1.80179 39.1162C2.39022 40.3318 3.23845 41.345 4.26228 42.0554C5.28611 42.7658 6.44994 43.1486 7.63827 43.1659C8.09506 43.1626 8.54968 43.0917 8.99143 42.9548H9.02403ZM25.8814 52.3783C28.4426 52.3246 30.9757 51.7399 33.3645 50.651C33.7256 50.4244 34.0011 50.0462 34.1363 49.5915C34.2715 49.1368 34.2565 48.6389 34.0943 48.1967C33.9321 47.7544 33.6346 47.4001 33.2608 47.2041C32.887 47.0081 32.4643 46.9848 32.0765 47.1387C30.064 48.0352 27.935 48.5157 25.7836 48.559C24.8759 48.5232 23.9917 48.2108 23.2174 47.6524C22.443 47.0939 21.8049 46.3086 21.3654 45.373C21.2622 45.1368 21.1184 44.9284 20.9432 44.7609C20.768 44.5935 20.5651 44.4707 20.3475 44.4004C20.1299 44.33 19.9023 44.3136 19.679 44.3522C19.4557 44.3908 19.2417 44.4835 19.0504 44.6245C17.2264 45.8475 15.1219 46.3645 13.0346 46.1023C10.5728 45.7185 10.5239 41.6881 10.5076 41.4961C10.5076 40.9871 10.3358 40.4989 10.0301 40.139C9.72436 39.7791 9.30969 39.5769 8.87731 39.5769C8.44492 39.5769 8.03025 39.7791 7.72451 40.139C7.41876 40.4989 7.247 40.9871 7.247 41.4961C7.247 44.1063 8.35561 49.1731 12.5944 49.9025C14.9062 50.219 17.2479 49.8015 19.3765 48.6933C20.1221 49.8223 21.0727 50.7409 22.1587 51.3817C23.2446 52.0226 24.4386 52.3697 25.6531 52.3975L25.8814 52.3783ZM87.6862 72.9335C87.6862 67.7132 81.165 64.5272 68.1225 63.3373C67.6902 63.3016 67.2635 63.4697 66.9363 63.8044C66.6092 64.1391 66.4084 64.6132 66.3781 65.1222C66.3478 65.6312 66.4906 66.1335 66.7749 66.5186C67.0593 66.9038 67.4619 67.1401 67.8943 67.1758C80.9367 68.2697 84.3604 71.3789 84.3604 72.9335C84.3604 74.4881 79.4695 79.0368 57.3788 79.0368C30.8049 79.0368 30.4951 73.778 30.4951 73.5477C30.4951 72.2234 33.5275 68.5192 47.3851 67.2525C47.5992 67.2336 47.808 67.1653 47.9997 67.0514C48.1913 66.9374 48.362 66.7802 48.5021 66.5886C48.6421 66.397 48.7487 66.1749 48.8158 65.9348C48.8829 65.6947 48.9092 65.4414 48.8931 65.1893C48.877 64.9373 48.819 64.6915 48.7222 64.4658C48.6255 64.2402 48.4919 64.0392 48.3291 63.8744C48.1664 63.7095 47.9777 63.584 47.7737 63.505C47.5698 63.426 47.3546 63.3951 47.1405 63.414C34.0981 64.604 27.2508 68.097 27.2508 73.5285C27.2508 77.5398 30.3647 82.8561 57.3788 82.8561C71.2527 82.8753 87.6862 81.148 87.6862 72.9335ZM46.358 114.121C46.8308 113.852 50.8902 111.108 49.211 101.127C48.2654 95.5424 48.8687 93.7383 49.4393 91.9918C49.8114 90.9855 50.0479 89.9171 50.1403 88.825C50.1449 87.008 49.9084 85.2013 49.4393 83.4703C48.836 80.649 48.1676 77.463 49.048 75.5437C49.7069 74.0037 50.0637 72.3091 50.0919 70.5851C50.1201 68.861 49.8191 67.1515 49.211 65.5828C48.5944 64.3797 48.2577 63.0066 48.2348 61.6017C48.2119 60.1968 48.5036 58.8096 49.0806 57.5795C50.4337 54.9693 50.1566 49.461 50.0914 48.3863C50.058 47.8838 49.858 47.4169 49.5347 47.0865C49.2113 46.7561 48.7906 46.5888 48.3633 46.6205C47.9335 46.6551 47.5328 46.8884 47.2487 47.2696C46.9646 47.6508 46.8202 48.1488 46.8471 48.6549C47.0881 51.005 46.9217 53.3881 46.358 55.6602C45.5098 57.4462 45.0645 59.4582 45.0645 61.5044C45.0645 63.5505 45.5098 65.5625 46.358 67.3485C46.7375 68.3648 46.9254 69.4659 46.9085 70.5759C46.8916 71.6859 46.6704 72.7784 46.2602 73.778C44.7603 77.0216 45.6407 81.1288 46.3417 84.4491C46.7 85.7869 46.9082 87.1741 46.9612 88.5755C46.8902 89.2982 46.7252 90.0038 46.4721 90.6675C45.8037 92.7019 44.9559 95.2545 46.0808 101.934C47.271 108.977 44.9396 110.762 44.9559 110.762C44.631 110.958 44.3714 111.277 44.2186 111.667C44.0658 112.057 44.0287 112.497 44.1133 112.915C44.1978 113.333 44.3991 113.705 44.6849 113.973C44.9707 114.24 45.3245 114.387 45.6896 114.389C45.9272 114.363 46.1563 114.271 46.358 114.121ZM78.2467 110.513C78.6201 110.277 78.9009 109.879 79.0295 109.404C79.1582 108.929 79.1247 108.413 78.9361 107.967C78.7474 107.52 78.4185 107.177 78.019 107.011C77.6195 106.845 77.1808 106.869 76.7958 107.077C76.6979 107.077 66.8672 112.835 57.1017 112.835C50.9659 112.714 44.9422 110.879 39.527 107.48C39.1592 107.284 38.7429 107.256 38.3585 107.401C37.9741 107.546 37.649 107.854 37.4462 108.264C37.2433 108.675 37.1771 109.16 37.2603 109.625C37.3435 110.09 37.5703 110.502 37.8967 110.781C43.8036 114.57 50.4082 116.599 57.1343 116.693C64.455 116.34 71.6382 114.237 78.2467 110.513ZM55.4225 115.33C56.2986 112.243 56.6314 108.977 56.4007 105.734C56.3726 105.225 56.1738 104.75 55.8482 104.413C55.687 104.246 55.4995 104.119 55.2963 104.037C55.0932 103.956 54.8785 103.923 54.6644 103.939C54.232 103.972 53.8285 104.206 53.5426 104.589C53.2568 104.973 53.1119 105.474 53.1401 105.983C53.3289 108.57 53.0965 111.176 52.4553 113.66C52.2778 114.121 52.2622 114.646 52.4118 115.12C52.5614 115.595 52.8642 115.981 53.2542 116.194C53.4668 116.317 53.702 116.376 53.9389 116.366C54.2355 116.364 54.5258 116.266 54.7786 116.083C55.0314 115.9 55.2371 115.64 55.3736 115.33H55.4225ZM54.3954 95.1009C54.8278 95.1009 55.2424 94.8987 55.5482 94.5388C55.8539 94.1789 56.0257 93.6907 56.0257 93.1817C56.0315 90.1794 55.8791 87.1796 55.5692 84.1996C55.069 81.7466 55.1422 79.18 55.7811 76.772C56.5333 74.5304 56.9098 72.1385 56.8898 69.7284C56.8898 69.2194 56.718 68.7312 56.4122 68.3713C56.1065 68.0113 55.6918 67.8091 55.2594 67.8091C54.8271 67.8091 54.4124 68.0113 54.1066 68.3713C53.8009 68.7312 53.6291 69.2194 53.6291 69.7284C53.6618 71.5179 53.4188 73.2996 52.9118 74.9871C51.4771 78.1731 52.0804 83.3167 52.3086 84.8137C52.5829 87.5913 52.719 90.3854 52.7162 93.1817C52.7162 93.6907 52.8879 94.1789 53.1937 94.5388C53.4994 94.8987 53.9141 95.1009 54.3465 95.1009H54.3954ZM61.96 102.778C64.0142 100.264 63.1501 95.6575 63.036 95.1009C63.0042 94.9467 62.9548 94.7982 62.8893 94.6595C62.4165 93.5847 61.6176 90.821 62.335 89.5351C63.5028 86.8982 63.8545 83.8649 63.3295 80.956C63.2877 80.704 63.2042 80.4641 63.0837 80.2501C62.9632 80.036 62.8081 79.852 62.6271 79.7085C62.4462 79.5651 62.2431 79.4649 62.0293 79.4139C61.8156 79.3629 61.5953 79.3619 61.3812 79.411C61.1671 79.4602 60.9634 79.5585 60.7815 79.7003C60.5997 79.8422 60.4434 80.0248 60.3216 80.2378C60.1997 80.4508 60.1146 80.6899 60.0713 80.9416C60.0279 81.1933 60.0271 81.4525 60.0688 81.7045C60.424 83.64 60.2411 85.6586 59.5471 87.4623C57.7538 90.6483 59.3515 95.1393 59.8243 96.2333C60.0199 97.3465 60.1177 99.4001 59.5308 100.072C59.3163 100.344 59.1735 100.684 59.1197 101.05C59.0659 101.415 59.1033 101.792 59.2276 102.133C59.3518 102.474 59.5575 102.766 59.8197 102.972C60.0819 103.179 60.3893 103.291 60.7047 103.296C60.9206 103.321 61.1385 103.294 61.3457 103.219C61.5528 103.143 61.7451 103.019 61.9111 102.855L61.96 102.778ZM69.0029 113.603C69.9648 110.436 69.2475 101.78 68.7421 97.6536C68.4876 95.6453 68.5707 93.5977 68.9866 91.6271C69.3705 90.3216 69.3705 88.9021 68.9866 87.5967C68.8725 87.2896 68.9866 86.8481 69.2638 85.9077C69.6151 84.8501 69.8347 83.7382 69.9159 82.6066C70.03 79.8237 69.3453 71.0911 69.117 68.7304C69.1534 67.7805 69.3473 66.8481 69.6876 65.9858C70.6104 63.4399 70.8988 60.6374 70.5191 57.9058C70.0875 55.1009 70.0875 52.2275 70.5191 49.4227C70.6113 48.9264 70.5327 48.4074 70.3005 47.9793C70.0682 47.5512 69.7013 47.2489 69.2801 47.1387C68.8585 47.0301 68.4176 47.1227 68.054 47.3961C67.6903 47.6695 67.4336 48.1015 67.34 48.5974C66.809 51.9141 66.809 55.3184 67.34 58.6351C67.5952 60.6959 67.3464 62.7996 66.6227 64.6999C66.0846 66.1026 65.8333 67.6342 65.889 69.1718C66.1662 72.0123 66.7694 80.1691 66.6716 82.4147C66.6107 83.1745 66.4513 83.9189 66.1988 84.6218C65.9078 85.3258 65.7418 86.0923 65.7109 86.8744C65.6801 87.6565 65.7851 88.4377 66.0194 89.1704C66.0354 89.7347 65.9748 90.2984 65.8401 90.8402C65.3438 93.2526 65.2496 95.7555 65.563 98.2101C66.2966 104.16 66.4922 110.628 65.9705 112.317C65.8295 112.795 65.855 113.32 66.0412 113.777C66.2275 114.233 66.5596 114.585 66.965 114.754C67.1376 114.828 67.3195 114.867 67.503 114.869C67.8165 114.856 68.1201 114.737 68.3775 114.526C68.6348 114.315 68.835 114.021 68.954 113.679L69.0029 113.603ZM84.556 160.298C84.5719 160.139 84.5719 159.978 84.556 159.818V109.131C84.556 102.644 77.7739 97.0586 67.2585 94.9282C66.8261 94.8391 66.3814 94.9559 66.0221 95.2529C65.6629 95.5498 65.4185 96.0026 65.3429 96.5116C65.2672 97.0206 65.3664 97.5442 65.6186 97.9671C65.8709 98.39 66.2555 98.6777 66.6879 98.7667C75.2307 100.494 81.1976 104.736 81.1976 109.054V159.55C80.7248 160.816 77.0729 168.397 58.0962 168.397C39.1194 168.397 35.4676 160.72 35.0437 159.569V109.131C35.0437 105.292 39.527 101.646 46.4558 99.5344C46.6699 99.4714 46.8714 99.3594 47.0487 99.2047C47.226 99.0501 47.3757 98.8558 47.4892 98.633C47.6028 98.4102 47.6779 98.1633 47.7104 97.9063C47.7429 97.6494 47.7321 97.3874 47.6785 97.1354C47.625 96.8833 47.5298 96.6462 47.3985 96.4374C47.2671 96.2287 47.1021 96.0524 46.9128 95.9188C46.7236 95.7851 46.5138 95.6966 46.2956 95.6584C46.0773 95.6202 45.8547 95.6329 45.6406 95.6959C36.8696 98.2869 31.6363 103.373 31.6363 109.131V159.895C31.6204 160.054 31.6204 160.215 31.6363 160.375C31.8972 161.603 34.8154 172.351 58.0147 172.351C81.6867 172.351 84.4093 160.855 84.5071 160.375L84.556 160.298ZM99.3429 131.029C102.131 118.516 95.3323 110.244 91.1913 108.804C87.0504 107.365 82.2736 110.378 82.0616 110.513C81.6703 110.767 81.3809 111.194 81.2571 111.7C81.1333 112.206 81.1852 112.748 81.4014 113.209C81.6176 113.67 81.9803 114.01 82.4099 114.156C82.8395 114.302 83.3006 114.241 83.6919 113.986C85.6723 112.677 87.9675 112.184 90.2132 112.585C92.8543 113.526 98.3647 119.879 96.0333 130.012C93.9139 139.455 88.8763 144.886 83.1213 143.831C82.6889 143.749 82.2468 143.874 81.8921 144.176C81.5375 144.478 81.2994 144.934 81.2302 145.443C81.161 145.952 81.2664 146.473 81.5232 146.89C81.7801 147.308 82.1673 147.588 82.5996 147.669C83.2309 147.783 83.8685 147.841 84.5071 147.842C91.175 148.053 96.9789 141.547 99.294 131.164L99.3429 131.029ZM84.2788 140.299C86.0998 139.737 87.778 138.663 89.1698 137.171C93.2781 133.064 94.0607 124.178 91.6315 120.282C89.6425 117.076 85.5668 117.633 83.48 118.477C83.0999 118.651 82.7886 118.985 82.6076 119.415C82.4265 119.845 82.3888 120.339 82.5018 120.8C82.649 121.252 82.9357 121.621 83.3045 121.835C83.6733 122.048 84.097 122.09 84.4908 121.951C85.2244 121.663 88.159 120.877 89.1208 122.431C90.3762 124.466 90.2621 131.279 87.1319 134.407C86.1608 135.457 85.002 136.238 83.7408 136.691C83.3405 136.784 82.9844 137.051 82.7429 137.438C82.5014 137.826 82.3921 138.306 82.4366 138.783C82.5067 139.211 82.6982 139.597 82.9796 139.88C83.2611 140.162 83.6157 140.324 83.9854 140.338L84.2788 140.299ZM82.8768 159.895C82.4561 160.86 81.9709 161.784 81.4258 162.659C81.4258 162.659 74.9046 167.495 74.709 167.572C74.5133 167.649 64.6011 170.374 64.6011 170.374L57.6234 172.293C77.5457 173.944 94.9573 169.971 95.9355 162.006C96.9137 154.041 82.8931 154.003 82.8931 154.003L82.8768 159.895Z" fill="#FF475D"/>
</svg>
