<svg width="201" height="126" viewBox="0 0 201 126" fill="none" xmlns="http://www.w3.org/2000/svg">
<path d="M161.812 43.4936C162.654 45.8161 161.601 48.5608 159.072 49.4054C156.755 50.2499 154.016 49.1943 153.173 46.6607C148.959 35.4705 141.585 25.9696 131.893 19.4244C122.622 13.0904 111.245 9.28984 99.0253 9.28984C86.8051 9.28984 75.4275 13.0903 66.1571 19.6355C56.4653 26.3918 49.0913 35.8929 44.8775 46.8719C44.2454 48.7721 42.349 49.8277 40.4528 49.8277L4.63512 50.25C2.10682 50.25 0 48.1386 0 45.605C0 43.0714 2.10682 40.96 4.63512 40.96L37.5033 40.5378C42.5599 28.9254 50.7766 19.002 60.8898 11.8235C71.6351 4.43377 84.9089 0 99.0253 0C113.142 0 126.204 4.43377 137.16 11.8235C148.327 19.6355 156.966 30.6144 161.812 43.4936ZM37.7137 82.3424C36.8709 80.02 37.9245 77.2752 40.4528 76.4307C42.7704 75.5862 45.5095 76.6418 46.3522 79.1754C50.5661 90.1544 57.94 99.6554 67.6318 106.412C76.9023 112.746 88.2799 116.546 100.5 116.546C112.72 116.546 124.098 112.746 133.368 106.201C143.06 99.4443 150.434 89.9432 154.648 78.7531C155.28 76.8529 157.176 75.7972 159.072 75.7972L196.365 75.375C198.893 75.375 201 77.2751 201 80.0199C201 82.5535 199.104 84.6649 196.365 84.6649L162.022 85.0872C156.965 96.6995 148.749 106.623 138.635 113.801C127.89 121.191 114.616 125.625 100.5 125.625C86.3836 125.625 73.3205 121.191 62.3645 113.801C51.1979 106.201 42.5596 95.2216 37.7137 82.3424Z" fill="#F8F8F8"/>
<circle cx="100.5" cy="62.4536" r="29.4321" fill="#F8F8F8"/>
</svg>
