<svg width="27" height="27" viewBox="0 0 27 27" fill="none" xmlns="http://www.w3.org/2000/svg">
<path d="M25.6876 24.1805L19.355 17.848C20.852 16.0112 21.6668 13.7349 21.6668 11.3337C21.6668 8.57342 20.5919 5.97841 18.6403 4.02676C16.6884 2.07484 14.0931 1 11.3331 1C8.57314 1 5.9776 2.07484 4.02648 4.02649C2.07457 5.97815 1 8.57316 1 11.3334C1 14.0934 2.07457 16.6884 4.02648 18.6403C5.9776 20.5922 8.57314 21.6671 11.3331 21.6671C13.7344 21.6671 16.0106 20.8524 17.8474 19.3551L24.1802 25.6882C24.3878 25.8958 24.6613 26 24.9339 26C25.2063 26 25.4797 25.8963 25.6876 25.6882C26.1041 25.2716 26.1041 24.5968 25.6876 24.1805ZM5.53359 17.1329C3.98437 15.5837 3.13128 13.5241 3.13128 11.3337C3.13128 9.14296 3.98437 7.08363 5.53359 5.53441C7.08281 3.98518 9.1424 3.13208 11.3331 3.13208C13.5238 3.13208 15.5831 3.98518 17.1326 5.53441C18.6818 7.08336 19.5347 9.14296 19.5347 11.3334C19.5347 13.5239 18.6821 15.5832 17.1326 17.1327C15.5831 18.6822 13.5238 19.5353 11.3331 19.5353C9.1424 19.5353 7.08308 18.6819 5.53359 17.1329Z" fill="#FFFFFF"/>
<path fill-rule="evenodd" clip-rule="evenodd" d="M3.31942 3.31934C5.45816 1.18008 8.30808 0 11.3331 0C14.3583 0 17.2079 1.18018 19.3474 3.31965C21.4866 5.45886 22.6668 8.30823 22.6668 11.3337C22.6668 13.6573 21.9695 15.8783 20.6752 17.7539L26.3945 23.4732C26.3945 23.4733 26.3944 23.4731 26.3945 23.4732C27.2016 24.2801 27.2016 25.5879 26.3951 26.3948C25.991 26.7995 25.4591 27 24.9339 27C24.4075 27 23.8762 26.7984 23.4731 26.3953L17.7533 20.6753C15.8778 21.9699 13.6568 22.6671 11.3331 22.6671C8.30807 22.6671 5.45813 21.487 3.31938 19.3474M3.31942 3.31934C1.17996 5.45859 0 8.30809 0 11.3334C0 14.3585 1.17997 17.2079 3.31938 19.3474M3.31942 3.31934C3.31947 3.31929 3.31938 3.31939 3.31942 3.31934ZM11.3331 2C8.83827 2 6.49716 2.96954 4.73369 4.7335C2.96941 6.49754 2 8.83829 2 11.3334C2 13.8282 2.96925 16.1689 4.73359 17.9332C6.49705 19.6974 8.83827 20.6671 11.3331 20.6671C13.5045 20.6671 15.5575 19.9316 17.2156 18.58L17.9158 18.0092L24.8873 24.9811C24.8873 24.9811 24.8873 24.9811 24.8873 24.9811C24.8943 24.9881 24.9011 24.9923 24.9081 24.9951C24.9157 24.9982 24.9246 25 24.9339 25C24.9436 25 24.9525 24.9981 24.9599 24.9951C24.9666 24.9924 24.9731 24.9884 24.98 24.9815C25.0062 24.9554 25.0063 24.9135 24.9807 24.8879L18.0092 17.9164L18.5799 17.2162C19.9313 15.5581 20.6668 13.505 20.6668 11.3337C20.6668 8.83862 19.6973 6.49797 17.9332 4.73386C16.1688 2.96949 13.8279 2 11.3331 2ZM11.3331 4.13208C9.40763 4.13208 7.60239 4.87982 6.2407 6.24151C4.87899 7.60323 4.13128 9.40822 4.13128 11.3337C4.13128 13.2588 4.87895 15.064 6.24058 16.4257C7.60268 17.7873 9.40775 18.5353 11.3331 18.5353C13.2585 18.5353 15.0635 17.7876 16.4255 16.4256C17.7874 15.0637 18.5347 13.2587 18.5347 11.3334C18.5347 9.4081 17.7872 7.60292 16.4256 6.24157C15.0636 4.87978 13.2585 4.13208 11.3331 4.13208ZM4.82649 4.8273C6.56324 3.09055 8.87717 2.13208 11.3331 2.13208C13.7891 2.13208 16.1027 3.09058 17.8397 4.82724C19.5765 6.56381 20.5347 8.87781 20.5347 11.3334C20.5347 13.789 19.5768 16.1027 17.8397 17.8398C16.1028 19.5768 13.7891 20.5353 11.3331 20.5353C8.87705 20.5353 6.56348 19.5764 4.82661 17.8402C3.08987 16.1034 2.13128 13.7894 2.13128 11.3337C2.13128 8.87769 3.08976 6.56403 4.82649 4.8273Z" fill="#FFFFFF"/>
</svg>
