<svg width="108" height="109" viewBox="0 0 108 109" fill="none" xmlns="http://www.w3.org/2000/svg">
<path d="M54.0288 0.44043C24.2769 0.44043 0.0721436 24.6452 0.0721436 54.3971C0.0721436 84.149 24.2769 108.354 54.0288 108.354C83.7808 108.354 107.985 84.149 107.985 54.3971C107.985 24.6452 83.7808 0.44043 54.0288 0.44043ZM54.0288 103.762C26.8094 103.762 4.6642 81.6165 4.6642 54.3971C4.6642 27.1777 26.8094 5.03249 54.0288 5.03249C81.2482 5.03249 103.393 27.1777 103.393 54.3971C103.393 81.6165 81.2482 103.762 54.0288 103.762ZM41.0666 45.6022C41.0666 45.6022 42.8093 50.2505 43.9699 51.992C44.6886 53.0711 45.7126 54.9757 49.7777 54.9757C53.8428 54.9757 54.8657 53.0723 55.5855 51.992C56.7473 50.2493 58.4889 45.6022 58.4889 45.6022C59.1306 45.6022 59.6506 45.0833 59.6506 44.4427V42.1202C59.6506 41.4774 59.1306 40.9585 58.4889 40.9585V39.2158C58.4889 35.1506 56.1894 31.6641 49.7777 31.6641C43.389 31.6641 41.0666 35.1506 41.0666 39.2158V40.9585C40.4857 40.9585 39.9037 41.4774 39.9037 42.1202V44.4427C39.9037 45.0833 40.4249 45.6022 41.0666 45.6022ZM64.6238 60.4161H34.9316C33.1441 60.4161 31.9422 61.6881 32.2694 63.4366C32.5288 64.813 34.1647 66.325 34.9316 67.0919L46.4611 78.6214C47.3462 79.5053 48.4942 79.9554 49.6526 79.9909V79.9978C49.6939 79.999 49.7364 79.9955 49.7766 79.9955C49.8168 79.9955 49.8592 79.999 49.8994 79.9978V79.9909C51.0589 79.9554 52.2081 79.5042 53.092 78.6214L64.6216 67.0919C65.3884 66.325 67.0232 64.8142 67.2815 63.4366C67.6121 61.6893 66.4079 60.4161 64.6238 60.4161ZM78.4379 28.7964H75.08V37.6797H66.1978V41.0365H75.08V49.9198H78.4379V41.0365H87.3212V37.6797H78.4379V28.7964Z" fill="#FF475D"/>
</svg>
